<mxfile host="app.diagrams.net" modified="2024-01-25T09:25:40.264Z" agent="Mozilla/5.0 (Windows NT 10.0; Win64; x64) AppleWebKit/537.36 (KHTML, like Gecko) Chrome/120.0.0.0 Safari/537.36" etag="MUic6YROaZdEHqvI7IdE" version="23.0.1" type="github">
  <diagram name="Trang-1" id="rS9DsyheVZtSrWm2MO88">
    <mxGraphModel dx="3694" dy="1160" grid="1" gridSize="10" guides="1" tooltips="1" connect="1" arrows="1" fold="1" page="1" pageScale="1" pageWidth="827" pageHeight="1169" math="0" shadow="0">
      <root>
        <mxCell id="0" />
        <mxCell id="1" parent="0" />
        <mxCell id="V83BWBz1lvYCD9PXyuBC-4" style="edgeStyle=orthogonalEdgeStyle;rounded=0;orthogonalLoop=1;jettySize=auto;html=1;exitX=0.5;exitY=1;exitDx=0;exitDy=0;" parent="1" edge="1">
          <mxGeometry relative="1" as="geometry">
            <mxPoint x="385" y="268.0000000000001" as="sourcePoint" />
            <mxPoint x="385" y="298.0000000000001" as="targetPoint" />
          </mxGeometry>
        </mxCell>
        <mxCell id="V83BWBz1lvYCD9PXyuBC-5" value="dl 500ms&amp;nbsp;" style="edgeLabel;html=1;align=center;verticalAlign=middle;resizable=0;points=[];" parent="V83BWBz1lvYCD9PXyuBC-4" vertex="1" connectable="0">
          <mxGeometry x="-0.648" y="3" relative="1" as="geometry">
            <mxPoint x="-2" y="7" as="offset" />
          </mxGeometry>
        </mxCell>
        <mxCell id="V83BWBz1lvYCD9PXyuBC-1" value="Về home" style="ellipse;whiteSpace=wrap;html=1;" parent="1" vertex="1">
          <mxGeometry x="350" y="228" width="70" height="40" as="geometry" />
        </mxCell>
        <mxCell id="V83BWBz1lvYCD9PXyuBC-7" style="edgeStyle=orthogonalEdgeStyle;rounded=0;orthogonalLoop=1;jettySize=auto;html=1;exitX=0.5;exitY=1;exitDx=0;exitDy=0;entryX=0.5;entryY=0;entryDx=0;entryDy=0;" parent="1" source="V83BWBz1lvYCD9PXyuBC-3" target="V83BWBz1lvYCD9PXyuBC-6" edge="1">
          <mxGeometry relative="1" as="geometry" />
        </mxCell>
        <mxCell id="V83BWBz1lvYCD9PXyuBC-8" value="m8029" style="edgeLabel;html=1;align=center;verticalAlign=middle;resizable=0;points=[];" parent="V83BWBz1lvYCD9PXyuBC-7" vertex="1" connectable="0">
          <mxGeometry x="0.0646" y="2" relative="1" as="geometry">
            <mxPoint as="offset" />
          </mxGeometry>
        </mxCell>
        <mxCell id="V83BWBz1lvYCD9PXyuBC-3" value="chạy tới DBD" style="rounded=0;whiteSpace=wrap;html=1;" parent="1" vertex="1">
          <mxGeometry x="342.5" y="300" width="85" height="20" as="geometry" />
        </mxCell>
        <mxCell id="V83BWBz1lvYCD9PXyuBC-11" style="edgeStyle=orthogonalEdgeStyle;rounded=0;orthogonalLoop=1;jettySize=auto;html=1;exitX=0.5;exitY=1;exitDx=0;exitDy=0;" parent="1" source="V83BWBz1lvYCD9PXyuBC-6" edge="1">
          <mxGeometry relative="1" as="geometry">
            <mxPoint x="265" y="410" as="targetPoint" />
          </mxGeometry>
        </mxCell>
        <mxCell id="V83BWBz1lvYCD9PXyuBC-13" value="Text" style="edgeLabel;html=1;align=center;verticalAlign=middle;resizable=0;points=[];" parent="V83BWBz1lvYCD9PXyuBC-11" vertex="1" connectable="0">
          <mxGeometry x="0.0435" y="3" relative="1" as="geometry">
            <mxPoint as="offset" />
          </mxGeometry>
        </mxCell>
        <mxCell id="V83BWBz1lvYCD9PXyuBC-14" value="nếu bật chân không" style="edgeLabel;html=1;align=center;verticalAlign=middle;resizable=0;points=[];" parent="V83BWBz1lvYCD9PXyuBC-11" vertex="1" connectable="0">
          <mxGeometry x="-0.0196" y="3" relative="1" as="geometry">
            <mxPoint as="offset" />
          </mxGeometry>
        </mxCell>
        <mxCell id="V83BWBz1lvYCD9PXyuBC-22" style="edgeStyle=orthogonalEdgeStyle;rounded=0;orthogonalLoop=1;jettySize=auto;html=1;exitX=0.5;exitY=1;exitDx=0;exitDy=0;" parent="1" source="V83BWBz1lvYCD9PXyuBC-6" target="V83BWBz1lvYCD9PXyuBC-19" edge="1">
          <mxGeometry relative="1" as="geometry" />
        </mxCell>
        <mxCell id="V83BWBz1lvYCD9PXyuBC-23" value="nếu không bật" style="edgeLabel;html=1;align=center;verticalAlign=middle;resizable=0;points=[];" parent="V83BWBz1lvYCD9PXyuBC-22" vertex="1" connectable="0">
          <mxGeometry x="-0.2248" y="1" relative="1" as="geometry">
            <mxPoint as="offset" />
          </mxGeometry>
        </mxCell>
        <mxCell id="V83BWBz1lvYCD9PXyuBC-6" value="Chờ in" style="rounded=0;whiteSpace=wrap;html=1;" parent="1" vertex="1">
          <mxGeometry x="341" y="350" width="85" height="20" as="geometry" />
        </mxCell>
        <mxCell id="V83BWBz1lvYCD9PXyuBC-20" style="edgeStyle=orthogonalEdgeStyle;rounded=0;orthogonalLoop=1;jettySize=auto;html=1;exitX=0.5;exitY=1;exitDx=0;exitDy=0;entryX=0.5;entryY=0;entryDx=0;entryDy=0;" parent="1" source="V83BWBz1lvYCD9PXyuBC-18" target="V83BWBz1lvYCD9PXyuBC-19" edge="1">
          <mxGeometry relative="1" as="geometry" />
        </mxCell>
        <mxCell id="V83BWBz1lvYCD9PXyuBC-21" value="dl d210" style="edgeLabel;html=1;align=center;verticalAlign=middle;resizable=0;points=[];" parent="V83BWBz1lvYCD9PXyuBC-20" vertex="1" connectable="0">
          <mxGeometry x="-0.254" y="-1" relative="1" as="geometry">
            <mxPoint as="offset" />
          </mxGeometry>
        </mxCell>
        <mxCell id="V83BWBz1lvYCD9PXyuBC-18" value="Van hút" style="whiteSpace=wrap;html=1;" parent="1" vertex="1">
          <mxGeometry x="230" y="410" width="70" height="30" as="geometry" />
        </mxCell>
        <mxCell id="V83BWBz1lvYCD9PXyuBC-25" style="edgeStyle=orthogonalEdgeStyle;rounded=0;orthogonalLoop=1;jettySize=auto;html=1;exitX=0.5;exitY=1;exitDx=0;exitDy=0;" parent="1" source="V83BWBz1lvYCD9PXyuBC-19" target="V83BWBz1lvYCD9PXyuBC-24" edge="1">
          <mxGeometry relative="1" as="geometry" />
        </mxCell>
        <mxCell id="V83BWBz1lvYCD9PXyuBC-26" value="cb x2" style="edgeLabel;html=1;align=center;verticalAlign=middle;resizable=0;points=[];" parent="V83BWBz1lvYCD9PXyuBC-25" vertex="1" connectable="0">
          <mxGeometry x="-0.2637" y="-1" relative="1" as="geometry">
            <mxPoint as="offset" />
          </mxGeometry>
        </mxCell>
        <mxCell id="V83BWBz1lvYCD9PXyuBC-19" value="XLD,van hút" style="whiteSpace=wrap;html=1;" parent="1" vertex="1">
          <mxGeometry x="337" y="480" width="94" height="40" as="geometry" />
        </mxCell>
        <mxCell id="V83BWBz1lvYCD9PXyuBC-28" style="edgeStyle=orthogonalEdgeStyle;rounded=0;orthogonalLoop=1;jettySize=auto;html=1;exitX=0.5;exitY=1;exitDx=0;exitDy=0;entryX=0.5;entryY=0;entryDx=0;entryDy=0;" parent="1" source="V83BWBz1lvYCD9PXyuBC-24" target="V83BWBz1lvYCD9PXyuBC-27" edge="1">
          <mxGeometry relative="1" as="geometry" />
        </mxCell>
        <mxCell id="V83BWBz1lvYCD9PXyuBC-29" value="dl d226" style="edgeLabel;html=1;align=center;verticalAlign=middle;resizable=0;points=[];" parent="V83BWBz1lvYCD9PXyuBC-28" vertex="1" connectable="0">
          <mxGeometry x="-0.328" y="-1" relative="1" as="geometry">
            <mxPoint y="7" as="offset" />
          </mxGeometry>
        </mxCell>
        <mxCell id="V83BWBz1lvYCD9PXyuBC-24" value="Van hút, XLD" style="whiteSpace=wrap;html=1;" parent="1" vertex="1">
          <mxGeometry x="305" y="560" width="156" height="30" as="geometry" />
        </mxCell>
        <mxCell id="V83BWBz1lvYCD9PXyuBC-31" style="edgeStyle=orthogonalEdgeStyle;rounded=0;orthogonalLoop=1;jettySize=auto;html=1;exitX=0.5;exitY=1;exitDx=0;exitDy=0;" parent="1" source="V83BWBz1lvYCD9PXyuBC-27" target="V83BWBz1lvYCD9PXyuBC-30" edge="1">
          <mxGeometry relative="1" as="geometry" />
        </mxCell>
        <mxCell id="V83BWBz1lvYCD9PXyuBC-32" value="m8029" style="edgeLabel;html=1;align=center;verticalAlign=middle;resizable=0;points=[];" parent="V83BWBz1lvYCD9PXyuBC-31" vertex="1" connectable="0">
          <mxGeometry x="-0.2375" y="-1" relative="1" as="geometry">
            <mxPoint y="3" as="offset" />
          </mxGeometry>
        </mxCell>
        <mxCell id="V83BWBz1lvYCD9PXyuBC-27" value="XLD, van hút(ck), XL hở, chạy tới ĐKT" style="whiteSpace=wrap;html=1;" parent="1" vertex="1">
          <mxGeometry x="299.25" y="640" width="167.75" height="30" as="geometry" />
        </mxCell>
        <mxCell id="V83BWBz1lvYCD9PXyuBC-136" style="edgeStyle=orthogonalEdgeStyle;rounded=0;orthogonalLoop=1;jettySize=auto;html=1;exitX=0.5;exitY=1;exitDx=0;exitDy=0;entryX=0.5;entryY=0;entryDx=0;entryDy=0;" parent="1" source="V83BWBz1lvYCD9PXyuBC-30" target="V83BWBz1lvYCD9PXyuBC-135" edge="1">
          <mxGeometry relative="1" as="geometry">
            <Array as="points">
              <mxPoint x="384" y="750" />
              <mxPoint x="720" y="750" />
              <mxPoint x="720" y="940" />
            </Array>
          </mxGeometry>
        </mxCell>
        <mxCell id="V83BWBz1lvYCD9PXyuBC-137" value="Đếm thiếu" style="edgeLabel;html=1;align=center;verticalAlign=middle;resizable=0;points=[];" parent="V83BWBz1lvYCD9PXyuBC-136" vertex="1" connectable="0">
          <mxGeometry x="-0.1545" y="5" relative="1" as="geometry">
            <mxPoint x="-115" y="5" as="offset" />
          </mxGeometry>
        </mxCell>
        <mxCell id="X1f7La6pQHhVVc1zuQpS-18" style="edgeStyle=orthogonalEdgeStyle;rounded=0;orthogonalLoop=1;jettySize=auto;html=1;exitX=0.5;exitY=1;exitDx=0;exitDy=0;entryX=0.5;entryY=0;entryDx=0;entryDy=0;" edge="1" parent="1" source="V83BWBz1lvYCD9PXyuBC-30" target="V83BWBz1lvYCD9PXyuBC-51">
          <mxGeometry relative="1" as="geometry" />
        </mxCell>
        <mxCell id="X1f7La6pQHhVVc1zuQpS-22" value="0 chức năng 4" style="edgeLabel;html=1;align=center;verticalAlign=middle;resizable=0;points=[];" vertex="1" connectable="0" parent="X1f7La6pQHhVVc1zuQpS-18">
          <mxGeometry x="0.2557" y="-2" relative="1" as="geometry">
            <mxPoint as="offset" />
          </mxGeometry>
        </mxCell>
        <mxCell id="X1f7La6pQHhVVc1zuQpS-19" style="edgeStyle=orthogonalEdgeStyle;rounded=0;orthogonalLoop=1;jettySize=auto;html=1;exitX=0.5;exitY=1;exitDx=0;exitDy=0;entryX=0.5;entryY=0;entryDx=0;entryDy=0;" edge="1" parent="1" source="V83BWBz1lvYCD9PXyuBC-30" target="V83BWBz1lvYCD9PXyuBC-75">
          <mxGeometry relative="1" as="geometry">
            <Array as="points">
              <mxPoint x="384" y="820" />
              <mxPoint x="451" y="820" />
            </Array>
          </mxGeometry>
        </mxCell>
        <mxCell id="X1f7La6pQHhVVc1zuQpS-21" value="Đếm đủ" style="edgeLabel;html=1;align=center;verticalAlign=middle;resizable=0;points=[];" vertex="1" connectable="0" parent="X1f7La6pQHhVVc1zuQpS-19">
          <mxGeometry x="-0.5616" y="-1" relative="1" as="geometry">
            <mxPoint as="offset" />
          </mxGeometry>
        </mxCell>
        <mxCell id="X1f7La6pQHhVVc1zuQpS-23" value="chức năng 4" style="edgeLabel;html=1;align=center;verticalAlign=middle;resizable=0;points=[];" vertex="1" connectable="0" parent="X1f7La6pQHhVVc1zuQpS-19">
          <mxGeometry x="0.0193" relative="1" as="geometry">
            <mxPoint x="14" y="-3" as="offset" />
          </mxGeometry>
        </mxCell>
        <mxCell id="V83BWBz1lvYCD9PXyuBC-30" value="XLD, van hút, counter" style="whiteSpace=wrap;html=1;" parent="1" vertex="1">
          <mxGeometry x="313.25" y="710" width="140.5" height="30" as="geometry" />
        </mxCell>
        <mxCell id="V83BWBz1lvYCD9PXyuBC-51" value="dao, van hut" style="whiteSpace=wrap;html=1;" parent="1" vertex="1">
          <mxGeometry x="202" y="900" width="100.25" height="30" as="geometry" />
        </mxCell>
        <mxCell id="V83BWBz1lvYCD9PXyuBC-59" value="dl d216" style="edgeStyle=orthogonalEdgeStyle;rounded=0;orthogonalLoop=1;jettySize=auto;html=1;exitX=0.5;exitY=1;exitDx=0;exitDy=0;entryX=0.5;entryY=0;entryDx=0;entryDy=0;" parent="1" source="V83BWBz1lvYCD9PXyuBC-51" target="V83BWBz1lvYCD9PXyuBC-60" edge="1">
          <mxGeometry relative="1" as="geometry">
            <mxPoint x="252.57000000000016" y="979.5799999999999" as="targetPoint" />
          </mxGeometry>
        </mxCell>
        <mxCell id="X1f7La6pQHhVVc1zuQpS-8" style="edgeStyle=orthogonalEdgeStyle;rounded=0;orthogonalLoop=1;jettySize=auto;html=1;exitX=0.5;exitY=1;exitDx=0;exitDy=0;entryX=0.5;entryY=0;entryDx=0;entryDy=0;" edge="1" parent="1" source="V83BWBz1lvYCD9PXyuBC-60" target="X1f7La6pQHhVVc1zuQpS-6">
          <mxGeometry relative="1" as="geometry" />
        </mxCell>
        <mxCell id="X1f7La6pQHhVVc1zuQpS-17" value="m8029" style="edgeLabel;html=1;align=center;verticalAlign=middle;resizable=0;points=[];" vertex="1" connectable="0" parent="X1f7La6pQHhVVc1zuQpS-8">
          <mxGeometry x="0.2869" y="2" relative="1" as="geometry">
            <mxPoint as="offset" />
          </mxGeometry>
        </mxCell>
        <mxCell id="V83BWBz1lvYCD9PXyuBC-60" value="dao, van hút(ck), DBD" style="whiteSpace=wrap;html=1;" parent="1" vertex="1">
          <mxGeometry x="192.12" y="990" width="120" height="60" as="geometry" />
        </mxCell>
        <mxCell id="V83BWBz1lvYCD9PXyuBC-73" style="edgeStyle=orthogonalEdgeStyle;rounded=0;orthogonalLoop=1;jettySize=auto;html=1;exitX=0;exitY=0.5;exitDx=0;exitDy=0;entryX=0;entryY=0.5;entryDx=0;entryDy=0;" parent="1" source="V83BWBz1lvYCD9PXyuBC-67" target="V83BWBz1lvYCD9PXyuBC-6" edge="1">
          <mxGeometry relative="1" as="geometry">
            <mxPoint x="330" y="354.35295553768384" as="targetPoint" />
            <Array as="points">
              <mxPoint x="50" y="1310" />
              <mxPoint x="-30" y="1310" />
              <mxPoint x="-30" y="360" />
            </Array>
          </mxGeometry>
        </mxCell>
        <mxCell id="V83BWBz1lvYCD9PXyuBC-67" value="delay t16 với d218" style="whiteSpace=wrap;html=1;" parent="1" vertex="1">
          <mxGeometry x="50" y="1290" width="120" height="60" as="geometry" />
        </mxCell>
        <mxCell id="V83BWBz1lvYCD9PXyuBC-84" style="edgeStyle=orthogonalEdgeStyle;rounded=0;orthogonalLoop=1;jettySize=auto;html=1;exitX=0.5;exitY=1;exitDx=0;exitDy=0;" parent="1" source="V83BWBz1lvYCD9PXyuBC-75" edge="1">
          <mxGeometry relative="1" as="geometry">
            <mxPoint x="451" y="980" as="targetPoint" />
          </mxGeometry>
        </mxCell>
        <mxCell id="V83BWBz1lvYCD9PXyuBC-86" value="dl d208" style="edgeLabel;html=1;align=center;verticalAlign=middle;resizable=0;points=[];" parent="V83BWBz1lvYCD9PXyuBC-84" vertex="1" connectable="0">
          <mxGeometry x="-0.2067" y="-4" relative="1" as="geometry">
            <mxPoint as="offset" />
          </mxGeometry>
        </mxCell>
        <mxCell id="V83BWBz1lvYCD9PXyuBC-75" value="dao, XLD, van hút" style="whiteSpace=wrap;html=1;" parent="1" vertex="1">
          <mxGeometry x="391" y="880" width="120" height="60" as="geometry" />
        </mxCell>
        <mxCell id="V83BWBz1lvYCD9PXyuBC-102" style="edgeStyle=orthogonalEdgeStyle;rounded=0;orthogonalLoop=1;jettySize=auto;html=1;" parent="1" edge="1">
          <mxGeometry relative="1" as="geometry">
            <mxPoint x="-30" y="1230" as="targetPoint" />
            <mxPoint x="-30" y="1490" as="sourcePoint" />
          </mxGeometry>
        </mxCell>
        <mxCell id="X1f7La6pQHhVVc1zuQpS-25" style="edgeStyle=orthogonalEdgeStyle;rounded=0;orthogonalLoop=1;jettySize=auto;html=1;exitX=0.5;exitY=1;exitDx=0;exitDy=0;entryX=0.5;entryY=0;entryDx=0;entryDy=0;" edge="1" parent="1" source="V83BWBz1lvYCD9PXyuBC-119" target="V83BWBz1lvYCD9PXyuBC-125">
          <mxGeometry relative="1" as="geometry" />
        </mxCell>
        <mxCell id="X1f7La6pQHhVVc1zuQpS-26" value="m8029" style="edgeLabel;html=1;align=center;verticalAlign=middle;resizable=0;points=[];" vertex="1" connectable="0" parent="X1f7La6pQHhVVc1zuQpS-25">
          <mxGeometry x="-0.1659" y="1" relative="1" as="geometry">
            <mxPoint as="offset" />
          </mxGeometry>
        </mxCell>
        <mxCell id="V83BWBz1lvYCD9PXyuBC-119" value="dao, XLD, van hút(ck), DBD" style="whiteSpace=wrap;html=1;" parent="1" vertex="1">
          <mxGeometry x="390" y="980" width="120" height="60" as="geometry" />
        </mxCell>
        <mxCell id="V83BWBz1lvYCD9PXyuBC-123" style="edgeStyle=orthogonalEdgeStyle;rounded=0;orthogonalLoop=1;jettySize=auto;html=1;exitX=0.5;exitY=1;exitDx=0;exitDy=0;entryX=0.5;entryY=0;entryDx=0;entryDy=0;" parent="1" source="V83BWBz1lvYCD9PXyuBC-125" target="V83BWBz1lvYCD9PXyuBC-130" edge="1">
          <mxGeometry relative="1" as="geometry" />
        </mxCell>
        <mxCell id="V83BWBz1lvYCD9PXyuBC-124" value="dl d234" style="edgeLabel;html=1;align=center;verticalAlign=middle;resizable=0;points=[];" parent="V83BWBz1lvYCD9PXyuBC-123" vertex="1" connectable="0">
          <mxGeometry x="0.223" y="4" relative="1" as="geometry">
            <mxPoint as="offset" />
          </mxGeometry>
        </mxCell>
        <mxCell id="V83BWBz1lvYCD9PXyuBC-125" value="XLD, van" style="whiteSpace=wrap;html=1;" parent="1" vertex="1">
          <mxGeometry x="390.25" y="1120" width="120" height="60" as="geometry" />
        </mxCell>
        <mxCell id="V83BWBz1lvYCD9PXyuBC-128" style="edgeStyle=orthogonalEdgeStyle;rounded=0;orthogonalLoop=1;jettySize=auto;html=1;exitX=0.5;exitY=1;exitDx=0;exitDy=0;entryX=0.5;entryY=0;entryDx=0;entryDy=0;" parent="1" source="V83BWBz1lvYCD9PXyuBC-130" target="V83BWBz1lvYCD9PXyuBC-132" edge="1">
          <mxGeometry relative="1" as="geometry" />
        </mxCell>
        <mxCell id="V83BWBz1lvYCD9PXyuBC-129" value="dl d212" style="edgeLabel;html=1;align=center;verticalAlign=middle;resizable=0;points=[];" parent="V83BWBz1lvYCD9PXyuBC-128" vertex="1" connectable="0">
          <mxGeometry x="0.06" y="3" relative="1" as="geometry">
            <mxPoint as="offset" />
          </mxGeometry>
        </mxCell>
        <mxCell id="SPS0u2D6XqK0Xt4h6-EM-12" value="chân 0" style="edgeLabel;html=1;align=center;verticalAlign=middle;resizable=0;points=[];" parent="V83BWBz1lvYCD9PXyuBC-128" vertex="1" connectable="0">
          <mxGeometry x="-0.5815" y="5" relative="1" as="geometry">
            <mxPoint as="offset" />
          </mxGeometry>
        </mxCell>
        <mxCell id="SPS0u2D6XqK0Xt4h6-EM-13" style="edgeStyle=orthogonalEdgeStyle;rounded=0;orthogonalLoop=1;jettySize=auto;html=1;exitX=1;exitY=0.25;exitDx=0;exitDy=0;entryX=1;entryY=0.5;entryDx=0;entryDy=0;" parent="1" source="V83BWBz1lvYCD9PXyuBC-130" target="V83BWBz1lvYCD9PXyuBC-132" edge="1">
          <mxGeometry relative="1" as="geometry" />
        </mxCell>
        <mxCell id="SPS0u2D6XqK0Xt4h6-EM-14" value="0 chân ko" style="edgeLabel;html=1;align=center;verticalAlign=middle;resizable=0;points=[];" parent="SPS0u2D6XqK0Xt4h6-EM-13" vertex="1" connectable="0">
          <mxGeometry x="-0.1462" y="1" relative="1" as="geometry">
            <mxPoint as="offset" />
          </mxGeometry>
        </mxCell>
        <mxCell id="V83BWBz1lvYCD9PXyuBC-130" value="van hút" style="whiteSpace=wrap;html=1;" parent="1" vertex="1">
          <mxGeometry x="485.5" y="1240" width="67.75" height="30" as="geometry" />
        </mxCell>
        <mxCell id="V83BWBz1lvYCD9PXyuBC-131" style="edgeStyle=orthogonalEdgeStyle;rounded=0;orthogonalLoop=1;jettySize=auto;html=1;exitX=0.5;exitY=1;exitDx=0;exitDy=0;" parent="1" source="V83BWBz1lvYCD9PXyuBC-132" target="V83BWBz1lvYCD9PXyuBC-133" edge="1">
          <mxGeometry relative="1" as="geometry">
            <Array as="points">
              <mxPoint x="522" y="1420" />
              <mxPoint x="396" y="1420" />
            </Array>
          </mxGeometry>
        </mxCell>
        <mxCell id="w3keHM6_GJvJtQN0CWd1-5" value="n lan" style="edgeLabel;html=1;align=center;verticalAlign=middle;resizable=0;points=[];" parent="V83BWBz1lvYCD9PXyuBC-131" vertex="1" connectable="0">
          <mxGeometry x="-0.6203" y="2" relative="1" as="geometry">
            <mxPoint as="offset" />
          </mxGeometry>
        </mxCell>
        <mxCell id="X1f7La6pQHhVVc1zuQpS-16" style="edgeStyle=orthogonalEdgeStyle;rounded=0;orthogonalLoop=1;jettySize=auto;html=1;exitX=0.75;exitY=1;exitDx=0;exitDy=0;entryX=0.5;entryY=0;entryDx=0;entryDy=0;" edge="1" parent="1" source="V83BWBz1lvYCD9PXyuBC-132" target="X1f7La6pQHhVVc1zuQpS-14">
          <mxGeometry relative="1" as="geometry" />
        </mxCell>
        <mxCell id="V83BWBz1lvYCD9PXyuBC-132" value="set m110" style="whiteSpace=wrap;html=1;" parent="1" vertex="1">
          <mxGeometry x="462.25" y="1340" width="120" height="60" as="geometry" />
        </mxCell>
        <mxCell id="X1f7La6pQHhVVc1zuQpS-24" style="edgeStyle=orthogonalEdgeStyle;rounded=0;orthogonalLoop=1;jettySize=auto;html=1;exitX=0.5;exitY=1;exitDx=0;exitDy=0;" edge="1" parent="1" source="V83BWBz1lvYCD9PXyuBC-133">
          <mxGeometry relative="1" as="geometry">
            <mxPoint x="-30" y="1310" as="targetPoint" />
          </mxGeometry>
        </mxCell>
        <mxCell id="V83BWBz1lvYCD9PXyuBC-133" value="delay t16 với d218" style="whiteSpace=wrap;html=1;" parent="1" vertex="1">
          <mxGeometry x="336.25" y="1430" width="120" height="60" as="geometry" />
        </mxCell>
        <mxCell id="V83BWBz1lvYCD9PXyuBC-139" value="" style="edgeStyle=orthogonalEdgeStyle;rounded=0;orthogonalLoop=1;jettySize=auto;html=1;" parent="1" source="V83BWBz1lvYCD9PXyuBC-135" target="V83BWBz1lvYCD9PXyuBC-138" edge="1">
          <mxGeometry relative="1" as="geometry" />
        </mxCell>
        <mxCell id="V83BWBz1lvYCD9PXyuBC-140" value="dl d208" style="edgeLabel;html=1;align=center;verticalAlign=middle;resizable=0;points=[];" parent="V83BWBz1lvYCD9PXyuBC-139" vertex="1" connectable="0">
          <mxGeometry x="-0.3981" y="-5" relative="1" as="geometry">
            <mxPoint y="-1" as="offset" />
          </mxGeometry>
        </mxCell>
        <mxCell id="V83BWBz1lvYCD9PXyuBC-135" value="dao, XLD, van hút,XLN,&amp;nbsp;" style="whiteSpace=wrap;html=1;" parent="1" vertex="1">
          <mxGeometry x="670" y="940" width="120" height="60" as="geometry" />
        </mxCell>
        <mxCell id="V83BWBz1lvYCD9PXyuBC-142" style="edgeStyle=orthogonalEdgeStyle;rounded=0;orthogonalLoop=1;jettySize=auto;html=1;exitX=0.5;exitY=1;exitDx=0;exitDy=0;entryX=0.5;entryY=0;entryDx=0;entryDy=0;" parent="1" source="V83BWBz1lvYCD9PXyuBC-138" target="V83BWBz1lvYCD9PXyuBC-141" edge="1">
          <mxGeometry relative="1" as="geometry" />
        </mxCell>
        <mxCell id="V83BWBz1lvYCD9PXyuBC-143" value="m8029" style="edgeLabel;html=1;align=center;verticalAlign=middle;resizable=0;points=[];" parent="V83BWBz1lvYCD9PXyuBC-142" vertex="1" connectable="0">
          <mxGeometry x="0.059" y="-2" relative="1" as="geometry">
            <mxPoint y="-1" as="offset" />
          </mxGeometry>
        </mxCell>
        <mxCell id="V83BWBz1lvYCD9PXyuBC-138" value="dao, XLD, van hút, XLN, DBD" style="whiteSpace=wrap;html=1;" parent="1" vertex="1">
          <mxGeometry x="670" y="1080" width="120" height="60" as="geometry" />
        </mxCell>
        <mxCell id="V83BWBz1lvYCD9PXyuBC-146" style="edgeStyle=orthogonalEdgeStyle;rounded=0;orthogonalLoop=1;jettySize=auto;html=1;exitX=0.5;exitY=1;exitDx=0;exitDy=0;entryX=0.5;entryY=0;entryDx=0;entryDy=0;" parent="1" source="V83BWBz1lvYCD9PXyuBC-141" target="V83BWBz1lvYCD9PXyuBC-145" edge="1">
          <mxGeometry relative="1" as="geometry" />
        </mxCell>
        <mxCell id="V83BWBz1lvYCD9PXyuBC-147" value="dl d208" style="edgeLabel;html=1;align=center;verticalAlign=middle;resizable=0;points=[];" parent="V83BWBz1lvYCD9PXyuBC-146" vertex="1" connectable="0">
          <mxGeometry x="-0.4" y="-2" relative="1" as="geometry">
            <mxPoint y="-1" as="offset" />
          </mxGeometry>
        </mxCell>
        <mxCell id="V83BWBz1lvYCD9PXyuBC-141" value="XLD, van hút" style="whiteSpace=wrap;html=1;" parent="1" vertex="1">
          <mxGeometry x="670" y="1200" width="120" height="60" as="geometry" />
        </mxCell>
        <mxCell id="X1f7La6pQHhVVc1zuQpS-28" style="edgeStyle=orthogonalEdgeStyle;rounded=0;orthogonalLoop=1;jettySize=auto;html=1;exitX=1;exitY=0.5;exitDx=0;exitDy=0;" edge="1" parent="1" source="V83BWBz1lvYCD9PXyuBC-145" target="X1f7La6pQHhVVc1zuQpS-27">
          <mxGeometry relative="1" as="geometry" />
        </mxCell>
        <mxCell id="V83BWBz1lvYCD9PXyuBC-145" value="XLD van hút," style="whiteSpace=wrap;html=1;" parent="1" vertex="1">
          <mxGeometry x="670" y="1310" width="120" height="60" as="geometry" />
        </mxCell>
        <mxCell id="SPS0u2D6XqK0Xt4h6-EM-1" value="nhánh 3" style="text;html=1;align=center;verticalAlign=middle;resizable=0;points=[];autosize=1;strokeColor=none;fillColor=none;" parent="1" vertex="1">
          <mxGeometry x="635" y="778" width="70" height="30" as="geometry" />
        </mxCell>
        <mxCell id="SPS0u2D6XqK0Xt4h6-EM-2" value="nhánh 2" style="text;html=1;align=center;verticalAlign=middle;resizable=0;points=[];autosize=1;strokeColor=none;fillColor=none;" parent="1" vertex="1">
          <mxGeometry x="445" y="830" width="70" height="30" as="geometry" />
        </mxCell>
        <mxCell id="SPS0u2D6XqK0Xt4h6-EM-3" value="nhánh 1" style="text;html=1;align=center;verticalAlign=middle;resizable=0;points=[];autosize=1;strokeColor=none;fillColor=none;" parent="1" vertex="1">
          <mxGeometry x="242.12" y="840" width="70" height="30" as="geometry" />
        </mxCell>
        <mxCell id="X1f7La6pQHhVVc1zuQpS-1" style="edgeStyle=orthogonalEdgeStyle;rounded=0;orthogonalLoop=1;jettySize=auto;html=1;exitX=0.5;exitY=1;exitDx=0;exitDy=0;entryX=0.5;entryY=0;entryDx=0;entryDy=0;" edge="1" parent="1" source="X1f7La6pQHhVVc1zuQpS-6" target="X1f7La6pQHhVVc1zuQpS-7">
          <mxGeometry relative="1" as="geometry" />
        </mxCell>
        <mxCell id="X1f7La6pQHhVVc1zuQpS-2" value="dl d212" style="edgeLabel;html=1;align=center;verticalAlign=middle;resizable=0;points=[];" vertex="1" connectable="0" parent="X1f7La6pQHhVVc1zuQpS-1">
          <mxGeometry x="0.06" y="3" relative="1" as="geometry">
            <mxPoint x="-2" as="offset" />
          </mxGeometry>
        </mxCell>
        <mxCell id="X1f7La6pQHhVVc1zuQpS-3" value="chân 0" style="edgeLabel;html=1;align=center;verticalAlign=middle;resizable=0;points=[];" vertex="1" connectable="0" parent="X1f7La6pQHhVVc1zuQpS-1">
          <mxGeometry x="-0.5815" y="5" relative="1" as="geometry">
            <mxPoint x="-5" as="offset" />
          </mxGeometry>
        </mxCell>
        <mxCell id="X1f7La6pQHhVVc1zuQpS-4" style="edgeStyle=orthogonalEdgeStyle;rounded=0;orthogonalLoop=1;jettySize=auto;html=1;entryX=0.953;entryY=-0.046;entryDx=0;entryDy=0;entryPerimeter=0;" edge="1" parent="1">
          <mxGeometry relative="1" as="geometry">
            <mxPoint x="285" y="1100" as="sourcePoint" />
            <mxPoint x="304.48" y="1184.24" as="targetPoint" />
            <Array as="points">
              <mxPoint x="285" y="1100" />
              <mxPoint x="306" y="1100" />
              <mxPoint x="306" y="1140" />
              <mxPoint x="304" y="1140" />
            </Array>
          </mxGeometry>
        </mxCell>
        <mxCell id="X1f7La6pQHhVVc1zuQpS-5" value="0 chân ko" style="edgeLabel;html=1;align=center;verticalAlign=middle;resizable=0;points=[];" vertex="1" connectable="0" parent="X1f7La6pQHhVVc1zuQpS-4">
          <mxGeometry x="-0.1462" y="1" relative="1" as="geometry">
            <mxPoint y="12" as="offset" />
          </mxGeometry>
        </mxCell>
        <mxCell id="X1f7La6pQHhVVc1zuQpS-6" value="van hút" style="whiteSpace=wrap;html=1;" vertex="1" parent="1">
          <mxGeometry x="216.37000000000003" y="1087" width="67.75" height="30" as="geometry" />
        </mxCell>
        <mxCell id="X1f7La6pQHhVVc1zuQpS-9" style="edgeStyle=orthogonalEdgeStyle;rounded=0;orthogonalLoop=1;jettySize=auto;html=1;exitX=0.5;exitY=1;exitDx=0;exitDy=0;entryX=1;entryY=0.5;entryDx=0;entryDy=0;" edge="1" parent="1" source="X1f7La6pQHhVVc1zuQpS-7" target="V83BWBz1lvYCD9PXyuBC-67">
          <mxGeometry relative="1" as="geometry" />
        </mxCell>
        <mxCell id="X1f7La6pQHhVVc1zuQpS-10" value="N LAN" style="edgeLabel;html=1;align=center;verticalAlign=middle;resizable=0;points=[];" vertex="1" connectable="0" parent="X1f7La6pQHhVVc1zuQpS-9">
          <mxGeometry x="-0.3522" y="-2" relative="1" as="geometry">
            <mxPoint as="offset" />
          </mxGeometry>
        </mxCell>
        <mxCell id="X1f7La6pQHhVVc1zuQpS-11" style="edgeStyle=orthogonalEdgeStyle;rounded=0;orthogonalLoop=1;jettySize=auto;html=1;exitX=0.75;exitY=1;exitDx=0;exitDy=0;" edge="1" parent="1" source="X1f7La6pQHhVVc1zuQpS-7">
          <mxGeometry relative="1" as="geometry">
            <mxPoint x="310" y="1280" as="targetPoint" />
          </mxGeometry>
        </mxCell>
        <mxCell id="X1f7La6pQHhVVc1zuQpS-7" value="set m110" style="whiteSpace=wrap;html=1;" vertex="1" parent="1">
          <mxGeometry x="189.12000000000003" y="1187" width="120" height="60" as="geometry" />
        </mxCell>
        <mxCell id="X1f7La6pQHhVVc1zuQpS-12" value="end" style="whiteSpace=wrap;html=1;" vertex="1" parent="1">
          <mxGeometry x="280" y="1280" width="100" height="30" as="geometry" />
        </mxCell>
        <mxCell id="X1f7La6pQHhVVc1zuQpS-14" value="end" style="whiteSpace=wrap;html=1;" vertex="1" parent="1">
          <mxGeometry x="540" y="1420" width="70" height="30" as="geometry" />
        </mxCell>
        <mxCell id="X1f7La6pQHhVVc1zuQpS-30" style="edgeStyle=orthogonalEdgeStyle;rounded=0;orthogonalLoop=1;jettySize=auto;html=1;exitX=1;exitY=0.5;exitDx=0;exitDy=0;entryX=1;entryY=0.5;entryDx=0;entryDy=0;" edge="1" parent="1" source="X1f7La6pQHhVVc1zuQpS-27" target="V83BWBz1lvYCD9PXyuBC-27">
          <mxGeometry relative="1" as="geometry" />
        </mxCell>
        <mxCell id="X1f7La6pQHhVVc1zuQpS-27" value="delay d226" style="whiteSpace=wrap;html=1;" vertex="1" parent="1">
          <mxGeometry x="860" y="1310" width="120" height="60" as="geometry" />
        </mxCell>
        <mxCell id="X1f7La6pQHhVVc1zuQpS-29" value="x6" style="text;html=1;align=center;verticalAlign=middle;resizable=0;points=[];autosize=1;strokeColor=none;fillColor=none;" vertex="1" parent="1">
          <mxGeometry x="798" y="1318" width="40" height="30" as="geometry" />
        </mxCell>
      </root>
    </mxGraphModel>
  </diagram>
</mxfile>
